<svg viewBox="0 0 1180 860" xmlns="http://www.w3.org/2000/svg" font-family="Arial, sans-serif">
<defs>
<marker id="arr" markerWidth="9" markerHeight="9" refX="7" refY="3" orient="auto"><path d="M0,0 L7,3 L0,6 Z" fill="#5b6472"/></marker>
<marker id="arrW" markerWidth="9" markerHeight="9" refX="7" refY="3" orient="auto"><path d="M0,0 L7,3 L0,6 Z" fill="#0f8a6a"/></marker>
<marker id="arrB" markerWidth="9" markerHeight="9" refX="7" refY="3" orient="auto"><path d="M0,0 L7,3 L0,6 Z" fill="#b4801f"/></marker>
</defs>
<rect x="0" y="0" width="1180" height="860" fill="#ffffff"/>
<rect x="20" y="60" width="250" height="170" rx="14" fill="#f4f6f9" stroke="#dfe4ea"/>
<text x="34" y="82" font-size="11" font-weight="700" fill="#6b7480" letter-spacing="0.5">CUSTOMER</text>
<rect x="300" y="60" width="560" height="540" rx="14" fill="#eef4fb" stroke="#cfe0f2"/>
<text x="316" y="82" font-size="11" font-weight="700" fill="#3a6ea5" letter-spacing="0.5">TRUSTSQUARE · CORE APP (Hetzner)</text>
<rect x="300" y="630" width="560" height="200" rx="14" fill="#f3faf7" stroke="#cfeadf"/>
<text x="316" y="652" font-size="11" font-weight="700" fill="#0f8a6a" letter-spacing="0.5">BUSINESS DOMAINS (derived from dBase)</text>
<rect x="900" y="60" width="260" height="540" rx="14" fill="#fbf6ec" stroke="#efe2c6"/>
<text x="916" y="82" font-size="11" font-weight="700" fill="#b4801f" letter-spacing="0.5">SEPARATE TEST ARTICLE</text>
<rect x="50" y="110" width="190" height="80" rx="10" fill="#fff" stroke="#9aa3af" stroke-width="1.6"/>
<text x="145" y="142" text-anchor="middle" font-weight="700" fill="#1c2530" font-size="14">Customer interface</text>
<text x="145" y="162" text-anchor="middle" font-size="11" fill="#5b6472">phone / browser · buyers + sellers</text>
<rect x="330" y="110" width="200" height="86" rx="10" fill="#fff" stroke="#3a6ea5" stroke-width="1.6"/>
<text x="430" y="140" text-anchor="middle" font-weight="700" fill="#1c2530" font-size="14">FEA</text>
<text x="430" y="160" text-anchor="middle" font-size="11" fill="#5b6472">Front-End App</text>
<text x="430" y="178" text-anchor="middle" font-size="11" fill="#5b6472">marketsquare.html · ms.js/css</text>
<rect x="330" y="300" width="200" height="100" rx="10" fill="#fff" stroke="#3a6ea5" stroke-width="2.4"/>
<text x="430" y="332" text-anchor="middle" font-weight="700" fill="#1c2530" font-size="15">BEA</text>
<text x="430" y="352" text-anchor="middle" font-size="11" fill="#5b6472">Back-End App · Flask</text>
<text x="430" y="370" text-anchor="middle" font-size="11" fill="#5b6472">~130 routes · AI ops</text>
<text x="430" y="388" text-anchor="middle" font-size="11" fill="#5b6472">Tuppence metering · trust</text>
<rect x="330" y="470" width="200" height="86" rx="10" fill="#fff" stroke="#3a6ea5" stroke-width="1.6"/>
<text x="430" y="500" text-anchor="middle" font-weight="700" fill="#1c2530" font-size="14">dBase</text>
<text x="430" y="520" text-anchor="middle" font-size="11" fill="#5b6472">SQLite (WAL) · 23 tables</text>
<text x="430" y="538" text-anchor="middle" font-size="11" fill="#5b6472">listings · trust · complaints · spend</text>
<rect x="640" y="300" width="190" height="100" rx="10" fill="#fff" stroke="#3a6ea5" stroke-width="1.6"/>
<text x="735" y="330" text-anchor="middle" font-weight="700" fill="#1c2530" font-size="14">Dashboard</text>
<text x="735" y="350" text-anchor="middle" font-size="11" fill="#5b6472">+1 · Live Health</text>
<text x="735" y="368" text-anchor="middle" font-size="11" fill="#5b6472">KPIs · pipeline</text>
<text x="735" y="386" text-anchor="middle" font-size="11" fill="#5b6472">David control surface</text>
<rect x="640" y="110" width="190" height="86" rx="10" fill="#fff" stroke="#3a6ea5" stroke-width="1.6"/>
<text x="735" y="140" text-anchor="middle" font-weight="700" fill="#1c2530" font-size="14">Auto-Emailer</text>
<text x="735" y="160" text-anchor="middle" font-size="11" fill="#5b6472">inbound triage (Haiku)</text>
<text x="735" y="178" text-anchor="middle" font-size="11" fill="#5b6472">draft / gated auto-send</text>
<rect x="930" y="280" width="200" height="150" rx="10" fill="#fff" stroke="#b4801f" stroke-width="2.4"/>
<text x="1030" y="312" text-anchor="middle" font-weight="700" fill="#8a5e10" font-size="15">BIT Agent</text>
<text x="1030" y="332" text-anchor="middle" font-size="11" fill="#5b6472">self-test · &lt;2% budget</text>
<text x="1030" y="350" text-anchor="middle" font-size="11" fill="#5b6472">own process, 0 deps</text>
<text x="1030" y="368" text-anchor="middle" font-size="11" fill="#5b6472">read-only over HTTP</text>
<text x="1030" y="392" text-anchor="middle" font-size="11" fill="#5b6472">functional + negative</text>
<text x="1030" y="410" text-anchor="middle" font-size="11" fill="#5b6472">report · mitigate · prevent</text>
<rect x="325" y="685" width="120" height="58" rx="9" fill="#fff" stroke="#0f8a6a" stroke-width="1.6"/>
<text x="385" y="711" text-anchor="middle" font-weight="700" fill="#1c2530" font-size="13">Finances</text>
<text x="385" y="729" text-anchor="middle" font-size="11" fill="#5b6472">Tuppence · packs</text>
<rect x="460" y="685" width="120" height="58" rx="9" fill="#fff" stroke="#0f8a6a" stroke-width="1.6"/>
<text x="520" y="711" text-anchor="middle" font-weight="700" fill="#1c2530" font-size="13">Taxes</text>
<text x="520" y="729" text-anchor="middle" font-size="11" fill="#5b6472">VAT · per-country</text>
<rect x="595" y="685" width="120" height="58" rx="9" fill="#fff" stroke="#0f8a6a" stroke-width="1.6"/>
<text x="655" y="711" text-anchor="middle" font-weight="700" fill="#1c2530" font-size="13">Countries</text>
<text x="655" y="729" text-anchor="middle" font-size="11" fill="#5b6472">geo · cities · reach</text>
<rect x="730" y="685" width="120" height="58" rx="9" fill="#fff" stroke="#0f8a6a" stroke-width="1.6"/>
<text x="790" y="711" text-anchor="middle" font-weight="700" fill="#1c2530" font-size="13">Profits</text>
<text x="790" y="729" text-anchor="middle" font-size="11" fill="#5b6472">margin · cost model</text>
<line x1="240" y1="150" x2="328" y2="150" stroke="#5b6472" stroke-width="1.8" marker-end="url(#arr)"/>
<line x1="328" y1="168" x2="242" y2="168" stroke="#5b6472" stroke-width="1.8" marker-end="url(#arr)"/>
<line x1="430" y1="196" x2="430" y2="298" stroke="#5b6472" stroke-width="2" marker-end="url(#arr)"/>
<line x1="448" y1="298" x2="448" y2="198" stroke="#5b6472" stroke-width="1.4" marker-end="url(#arr)"/>
<text x="470" y="250" font-size="10.5" fill="#7a828e" font-style="italic">HTTPS / JSON</text>
<line x1="430" y1="400" x2="430" y2="468" stroke="#5b6472" stroke-width="2" marker-end="url(#arr)"/>
<line x1="448" y1="468" x2="448" y2="402" stroke="#5b6472" stroke-width="1.4" marker-end="url(#arr)"/>
<text x="470" y="440" font-size="10.5" fill="#7a828e" font-style="italic">read / write</text>
<line x1="530" y1="320" x2="638" y2="190" stroke="#5b6472" stroke-width="1.8" marker-end="url(#arr)"/>
<line x1="530" y1="360" x2="638" y2="360" stroke="#5b6472" stroke-width="1.8" marker-end="url(#arr)"/>
<text x="548" y="352" font-size="10.5" fill="#7a828e" font-style="italic">observe</text>
<line x1="400" y1="556" x2="388" y2="683" stroke="#0f8a6a" stroke-width="1.6" marker-end="url(#arrW)"/>
<line x1="445" y1="556" x2="520" y2="683" stroke="#0f8a6a" stroke-width="1.6" marker-end="url(#arrW)"/>
<line x1="470" y1="556" x2="652" y2="683" stroke="#0f8a6a" stroke-width="1.6" marker-end="url(#arrW)"/>
<line x1="490" y1="556" x2="785" y2="683" stroke="#0f8a6a" stroke-width="1.6" marker-end="url(#arrW)"/>
<text x="556" y="610" font-size="10.5" fill="#0f8a6a" font-style="italic">derived ledgers / reporting</text>
<line x1="928" y1="320" x2="532" y2="330" stroke="#b4801f" stroke-width="1.5" stroke-dasharray="6 4" marker-end="url(#arrB)"/>
<line x1="928" y1="360" x2="832" y2="355" stroke="#b4801f" stroke-width="1.5" stroke-dasharray="6 4" marker-end="url(#arrB)"/>
<line x1="940" y1="400" x2="534" y2="150" stroke="#b4801f" stroke-width="1.3" stroke-dasharray="6 4" marker-end="url(#arrB)"/>
<line x1="950" y1="420" x2="534" y2="510" stroke="#b4801f" stroke-width="1.3" stroke-dasharray="6 4" marker-end="url(#arrB)"/>
<text x="612" y="290" font-size="10.5" fill="#b4801f" font-style="italic">read-only probes</text>
<path d="M970,430 Q900,500 838,360" fill="none" stroke="#b4801f" stroke-width="1.3" stroke-dasharray="2 3" marker-end="url(#arrB)"/>
<text x="876" y="470" font-size="10.5" fill="#b4801f" font-style="italic">findings → alert</text>
<rect x="20" y="270" width="250" height="160" rx="10" fill="#fff" stroke="#dfe4ea"/>
<text x="34" y="292" font-size="11" font-weight="700" fill="#6b7480" letter-spacing="0.5">LEGEND</text>
<line x1="34" y1="312" x2="64" y2="312" stroke="#5b6472" stroke-width="2" marker-end="url(#arr)"/>
<text x="72" y="316" font-size="11" fill="#5b6472">app data path (HTTP / DB)</text>
<line x1="34" y1="338" x2="64" y2="338" stroke="#0f8a6a" stroke-width="2" marker-end="url(#arrW)"/>
<text x="72" y="342" font-size="11" fill="#5b6472">derived business domain</text>
<line x1="34" y1="364" x2="64" y2="364" stroke="#b4801f" stroke-width="1.6" stroke-dasharray="6 4" marker-end="url(#arrB)"/>
<text x="72" y="368" font-size="11" fill="#5b6472">BIT read-only observation</text>
<path d="M34,390 L64,390" stroke="#b4801f" stroke-width="1.4" stroke-dasharray="2 3"/>
<text x="72" y="394" font-size="11" fill="#5b6472">BIT findings → alert</text>
<text x="34" y="418" font-size="11" fill="#5b6472" font-style="italic">BIT shares no process / deps / DB</text>
</svg>
